<?xml version="1.0" standalone="no"?>
<!DOCTYPE svg PUBLIC "-//W3C//DTD SVG 20010904//EN"
 "http://www.w3.org/TR/2001/REC-SVG-20010904/DTD/svg10.dtd">
<svg version="1.0" xmlns="http://www.w3.org/2000/svg"
 width="752.000000pt" height="752.000000pt" viewBox="0 0 752.000000 752.000000"
 preserveAspectRatio="xMidYMid meet">

<g transform="translate(0.000000,752.000000) scale(0.100000,-0.100000)"
fill="#000000" stroke="none">
<path d="M3595 5694 c-93 -14 -200 -40 -275 -66 -529 -185 -969 -735 -1269
-1585 -174 -493 -301 -1130 -304 -1528 l-2 -159 80 -58 c351 -251 895 -474
1375 -562 267 -50 570 -67 800 -47 461 41 931 180 1359 402 141 73 352 201
411 249 l34 28 -12 88 c-24 163 -103 546 -162 779 -138 545 -286 959 -485
1350 -312 618 -673 971 -1105 1085 -68 18 -118 23 -250 25 -91 2 -178 1 -195
-1z m312 -305 c446 -61 825 -446 1131 -1149 138 -319 277 -773 367 -1200 39
-184 85 -461 79 -471 -9 -15 -209 -145 -314 -204 -410 -230 -928 -374 -1359
-377 -113 -1 -133 2 -193 25 -163 63 -301 199 -426 422 -51 91 -118 242 -111
249 11 11 166 -15 189 -32 40 -30 68 -78 75 -132 7 -49 7 -49 63 -70 72 -27
224 -50 332 -50 108 0 260 23 332 50 55 20 55 21 61 70 13 109 59 146 197 161
50 5 99 13 109 19 26 13 56 82 76 174 17 76 17 82 0 128 -23 66 -16 153 20
238 179 425 164 662 -58 906 -239 261 -639 370 -1010 275 -217 -56 -428 -203
-546 -381 l-44 -65 6 120 c8 159 32 321 72 481 92 368 260 627 484 743 141 73
287 95 468 70z m-453 -2013 c77 -32 126 -152 102 -247 -25 -97 -90 -147 -235
-185 -113 -28 -195 2 -222 84 -7 20 -13 71 -13 113 0 64 4 83 26 120 29 48 67
80 131 110 51 23 162 25 211 5z m763 -1 c64 -19 147 -91 164 -142 16 -50 6
-195 -16 -229 -9 -14 -37 -35 -62 -46 -57 -25 -121 -20 -220 17 -87 33 -126
64 -153 121 -46 94 -3 235 83 275 51 23 135 24 204 4z m-430 -368 c27 -24 48
-86 64 -185 14 -88 7 -99 -67 -113 -54 -10 -145 4 -163 25 -20 24 13 196 49
254 33 53 72 60 117 19z"/>
</g>
</svg>
